<?xml version="1.0" encoding="UTF-8" standalone="no"?>
<!-- Generator: Adobe Illustrator 16.0.0, SVG Export Plug-In . SVG Version: 6.00 Build 0)  -->

<svg
   xmlns:dc="http://purl.org/dc/elements/1.1/"
   xmlns:cc="http://creativecommons.org/ns#"
   xmlns:rdf="http://www.w3.org/1999/02/22-rdf-syntax-ns#"
   xmlns:svg="http://www.w3.org/2000/svg"
   xmlns="http://www.w3.org/2000/svg"
   xmlns:xlink="http://www.w3.org/1999/xlink"
   xmlns:sodipodi="http://sodipodi.sourceforge.net/DTD/sodipodi-0.dtd"
   xmlns:inkscape="http://www.inkscape.org/namespaces/inkscape"
   version="1.1"
   id="Layer_1"
   x="0px"
   y="0px"
   width="2624.3293"
   height="2624.5017"
   viewBox="0 0 2624.3293 2624.5017"
   enable-background="new 0 0 4975 4975"
   xml:space="preserve"
   sodipodi:docname="logo-cronest-2-grey.svg"
   inkscape:version="0.92.5 (2060ec1f9f, 2020-04-08)"><metadata
   id="metadata131"><rdf:RDF><cc:Work
       rdf:about=""><dc:format>image/svg+xml</dc:format><dc:type
         rdf:resource="http://purl.org/dc/dcmitype/StillImage" /><dc:title></dc:title></cc:Work></rdf:RDF></metadata><defs
   id="defs129" /><sodipodi:namedview
   pagecolor="#ffffff"
   bordercolor="#666666"
   borderopacity="1"
   objecttolerance="10"
   gridtolerance="10"
   guidetolerance="10"
   inkscape:pageopacity="0"
   inkscape:pageshadow="2"
   inkscape:window-width="1920"
   inkscape:window-height="1015"
   id="namedview127"
   showgrid="false"
   inkscape:zoom="0.18974874"
   inkscape:cx="-653.86593"
   inkscape:cy="1153.8392"
   inkscape:window-x="0"
   inkscape:window-y="0"
   inkscape:window-maximized="1"
   inkscape:current-layer="g26" />
<rect
   display="none"
   width="4973.1299"
   height="4975"
   id="rect2"
   x="-1112.3669"
   y="-1016.8376"
   style="display:none" />
<g
   id="g26"
   transform="translate(-1112.367,-1016.8376)">
	<defs
   id="defs5">
		<rect
   id="SVGID_1_"
   width="4975"
   height="4975"
   x="0"
   y="0" />
	</defs>
	<clipPath
   id="SVGID_2_">
		<use
   xlink:href="#SVGID_1_"
   overflow="visible"
   id="use7"
   style="overflow:visible"
   x="0"
   y="0"
   width="100%"
   height="100%" />
	</clipPath>
	<path
   clip-path="url(#SVGID_2_)"
   d="m 1594.94,2281.92 c 0.08,0.95 0.16,1.9 0.24,2.84 11.98,138.891 52.87,274.51 120.48,397.32 0.75,1.361 1.51,2.72 2.27,4.08 0.98,1.76 1.96,3.51 2.95,5.26 64.58,114.42 152.58,217.38 262.17,301.061 1.18,0.899 2.35,1.8 3.53,2.68 1.68,1.29 3.37,2.57 5.07,3.83 21.78,16.26 44.39,31.77 67.82,46.47 63.6,39.89 129.97,71.74 197.91,95.8 2.34,0.83 4.69,1.65 7.03,2.46 2.149,0.75 4.3,1.48 6.46,2.21 0.1,0.03 0.2,0.07 0.3,0.101 2.44,0.83 4.89,1.64 7.34,2.45 2.37,0.779 4.75,1.55 7.12,2.31 0.01,0.01 0.01,0.01 0.02,0.01 2.65,0.851 5.3,1.681 7.95,2.51 1.08,0.341 2.17,0.671 3.25,1.011 1.47,0.449 2.93,0.899 4.4,1.34 0.92,0.281 1.84,0.56 2.76,0.83 1.91,0.569 3.82,1.14 5.729,1.701 2.291,0.669 4.581,1.328 6.881,1.988 0.979,0.28 1.96,0.551 2.939,0.83 1.851,0.521 3.7,1.04 5.561,1.54 1.119,0.311 2.25,0.62 3.369,0.92 65.421,17.78 131.881,28.63 198.37,32.761 v -0.15 -5.48 -396.93 c 2.461,-0.21 4.91,-0.45 7.361,-0.7 -2.461,-0.06 -4.921,-0.12 -7.361,-0.189 -6.02,-0.16 -11.979,-0.36 -17.909,-0.601 -106.51,-4.3 -199.03,-20.85 -278.13,-57.97 -510.92,-239.78 -514.92,-841.26 -486.62,-1064.92 -119.25,190.127 -166.57,404.957 -149.26,612.627"
   id="path10"
   inkscape:connector-curvature="0"
   style="fill:#ececec" />
	<path
   clip-path="url(#SVGID_2_)"
   d="m 1494.94,2281.92 c 0.08,0.95 0.16,1.9 0.24,2.84 12.08,143.181 54.37,277.75 120.48,397.32 0.75,1.361 1.51,2.72 2.27,4.08 0.98,1.76 1.96,3.51 2.95,5.26 66.43,117.16 155.87,219.561 262.17,301.061 1.18,0.899 2.35,1.8 3.53,2.68 1.68,1.29 3.37,2.57 5.07,3.83 80.1,60.06 169.53,108.34 265.73,142.27 2.34,0.83 4.69,1.65 7.03,2.46 2.149,0.75 4.3,1.48 6.46,2.21 0.1,0.03 0.2,0.07 0.3,0.101 2.44,0.83 4.89,1.64 7.34,2.45 2.37,0.779 4.75,1.55 7.12,2.31 0.01,0.01 0.01,0.01 0.02,0.01 2.65,0.851 5.3,1.681 7.95,2.51 1.08,0.341 2.17,0.671 3.25,1.011 1.47,0.449 2.93,0.899 4.4,1.34 0.92,0.281 1.84,0.56 2.76,0.83 1.91,0.569 3.82,1.14 5.729,1.701 2.291,0.669 4.581,1.328 6.881,1.988 0.979,0.28 1.96,0.551 2.939,0.83 1.851,0.521 3.7,1.04 5.561,1.54 1.119,0.311 2.25,0.62 3.369,0.92 63.82,17.271 130.161,28.37 198.371,32.61 v -402.41 c -9.03,0.82 -18.06,1.43 -27.09,1.84 -498.34,22.41 -818.45,-402.38 -908.16,-595.77 0,27.668 1.13,55.078 3.33,82.178"
   id="path12"
   inkscape:connector-curvature="0"
   style="fill:#cccccc" />
	<path
   clip-path="url(#SVGID_2_)"
   d="m 2348.95,2792.18 c -3.061,1.13 -6.13,2.24 -9.18,3.33 -361.77,129.21 -652.56,-31.309 -799.95,-146.47 166.56,325.28 486.99,520.241 827.04,541.56 v -396.93 c 2.46,-0.21 4.91,-0.45 7.359,-0.7 -2.46,-0.06 -4.92,-0.12 -7.359,-0.188 v -7.441 c -5.99,2.36 -11.96,4.639 -17.91,6.839"
   id="path14"
   style="fill:#808080;fill-opacity:1"
   inkscape:connector-curvature="0" />
	<path
   clip-path="url(#SVGID_2_)"
   d="m 2629.031,2734.21 c -79.102,37.12 -171.621,53.67 -278.131,57.97 -5.93,0.24 -11.89,0.44 -17.91,0.601 -2.439,0.069 -4.899,0.13 -7.36,0.189 2.45,0.25 4.901,0.49 7.36,0.7 v 396.93 5.48 0.15 c 66.49,-4.131 132.95,-14.98 198.37,-32.761 1.12,-0.3 2.25,-0.609 3.37,-0.92 1.86,-0.5 3.71,-1.02 5.561,-1.54 0.979,-0.279 1.959,-0.55 2.939,-0.83 2.301,-0.66 4.59,-1.319 6.88,-1.989 1.909,-0.561 3.819,-1.13 5.73,-1.7 0.919,-0.271 1.839,-0.55 2.759,-0.83 1.471,-0.44 2.932,-0.891 4.4,-1.34 1.08,-0.34 2.17,-0.67 3.25,-1.01 2.65,-0.83 5.301,-1.66 7.951,-2.511 0.01,0 0.01,0 0.02,-0.01 2.37,-0.76 4.75,-1.53 7.12,-2.31 2.45,-0.811 4.899,-1.62 7.339,-2.45 0.102,-0.03 0.201,-0.07 0.301,-0.101 2.16,-0.729 4.311,-1.46 6.46,-2.21 2.341,-0.81 4.69,-1.63 7.03,-2.46 67.939,-24.06 134.311,-55.91 197.91,-95.8 23.43,-14.7 46.039,-30.21 67.82,-46.47 1.699,-1.26 3.39,-2.54 5.068,-3.83 1.182,-0.88 2.352,-1.78 3.531,-2.68 109.59,-83.681 197.59,-186.641 262.17,-301.061 0.99,-1.75 1.97,-3.5 2.949,-5.26 0.76,-1.36 1.521,-2.72 2.271,-4.08 67.61,-122.811 108.5,-258.43 120.479,-397.32 0.08,-0.939 0.16,-1.89 0.24,-2.84 17.311,-207.67 -30.01,-422.5 -149.26,-612.63 28.303,223.663 24.303,825.143 -486.617,1064.923"
   id="path16"
   inkscape:connector-curvature="0"
   style="fill:#ececec" />
	<path
   clip-path="url(#SVGID_2_)"
   d="m 2634.73,3162.55 c 1.859,-0.5 3.71,-1.02 5.561,-1.54 0.979,-0.279 1.959,-0.55 2.939,-0.83 2.301,-0.66 4.59,-1.318 6.88,-1.988 1.91,-0.562 3.82,-1.132 5.729,-1.701 0.92,-0.271 1.841,-0.549 2.761,-0.83 1.47,-0.44 2.931,-0.891 4.399,-1.339 1.08,-0.341 2.17,-0.671 3.25,-1.012 2.65,-0.829 5.301,-1.659 7.951,-2.51 0.01,0 0.01,0 0.02,-0.01 2.369,-0.76 4.75,-1.53 7.119,-2.31 2.451,-0.811 4.9,-1.619 7.341,-2.45 0.101,-0.03 0.2,-0.07 0.3,-0.101 2.16,-0.729 4.311,-1.46 6.46,-2.21 2.341,-0.81 4.69,-1.63 7.03,-2.46 96.199,-33.93 185.63,-82.21 265.73,-142.27 1.699,-1.26 3.389,-2.54 5.069,-3.83 1.181,-0.88 2.351,-1.78 3.53,-2.68 106.3,-81.5 195.74,-183.9 262.17,-301.061 0.99,-1.75 1.97,-3.5 2.949,-5.26 0.761,-1.36 1.521,-2.719 2.271,-4.08 66.11,-119.57 108.399,-254.14 120.479,-397.32 0.08,-0.94 0.16,-1.89 0.24,-2.84 2.2,-27.1 3.33,-54.51 3.33,-82.18 -89.709,193.39 -409.82,618.18 -908.16,595.77 -9.03,-0.41 -18.06,-1.02 -27.09,-1.84 v 402.41 c 68.211,-4.24 134.551,-15.34 198.37,-32.61 1.122,-0.298 2.252,-0.607 3.372,-0.918"
   id="path18"
   inkscape:connector-curvature="0"
   style="fill:#cccccc" />
	<path
   clip-path="url(#SVGID_2_)"
   d="m 3320.031,2649.04 c -147.391,115.16 -438.182,275.681 -799.951,146.47 -3.049,-1.09 -6.119,-2.199 -9.18,-3.33 -5.949,-2.199 -11.92,-4.479 -17.91,-6.84 v 7.44 c -2.439,0.069 -4.899,0.13 -7.36,0.19 2.45,0.25 4.901,0.489 7.36,0.699 v 396.93 c 340.051,-21.319 660.481,-216.279 827.041,-541.559"
   id="path20"
   style="fill:#808080;fill-opacity:1"
   inkscape:connector-curvature="0" />
	<path
   clip-path="url(#SVGID_2_)"
   d="m 2429.925,3202.066 c 150.86,0 273.158,-52.396 273.158,-117.033 0,-64.636 -122.298,-117.033 -273.158,-117.033 -150.86,0 -273.157,52.397 -273.157,117.033 0,64.637 122.296,117.033 273.157,117.033"
   id="path22"
   style="fill:#808080;fill-opacity:1"
   inkscape:connector-curvature="0" />
	<path
   clip-path="url(#SVGID_2_)"
   d="m 2431.401,3153.066 c 161.598,0 292.599,-150.807 292.599,-336.834 0,-186.027 -131.001,-336.834 -292.599,-336.834 -74.331,0 -142.189,31.907 -193.802,84.475 -60.594,61.713 -98.796,151.9 -98.796,252.359 0,186.028 131,336.834 292.598,336.834"
   id="path24"
   style="fill:#808080;fill-opacity:1"
   inkscape:connector-curvature="0" />
</g>
<g
   id="g36"
   transform="translate(-1112.367,-1016.8376)"
   style="fill:#808080">
	<defs
   id="defs29">
		<rect
   id="SVGID_3_"
   width="4975"
   height="4975"
   x="0"
   y="0" />
	</defs>
	<clipPath
   id="SVGID_4_">
		<use
   xlink:href="#SVGID_3_"
   overflow="visible"
   id="use31"
   style="overflow:visible"
   x="0"
   y="0"
   width="100%"
   height="100%" />
	</clipPath>
	<path
   clip-path="url(#SVGID_4_)"
   d="m 2439.771,2223.612 c -53.343,14.93 -91.119,49.823 -118.646,109.589 -15.272,33.157 -28.354,92.819 -24.512,111.788 2.024,9.987 -1.062,15.04 -21.214,34.738 -22.208,21.708 -47.618,66.307 -53.891,94.579 l -2.122,9.566 210.375,-2.531 210.375,-2.531 -14.021,-11.451 c -26.783,-21.883 -33.389,-53.915 -17.867,-86.639 10.405,-21.926 27.714,-32.757 69.232,-43.317 35.109,-8.933 129.108,-14.117 179.918,-9.924 22.144,1.831 40.372,2.358 40.358,1.168 -0.079,-6.634 -47.545,-57.627 -67.245,-72.242 -30.671,-22.755 -42.855,-28.296 -90.297,-41.065 -49.611,-13.357 -50.418,-13.752 -92.516,-45.238 -54.699,-40.914 -95.234,-54.915 -155.521,-53.713 -15.615,0.309 -39.436,3.594 -52.406,7.223 m 130.529,88.804 c 12.765,12.592 10.024,18.593 -10.319,22.597 -19.476,3.834 -42.063,-0.283 -54.348,-9.902 l -10.074,-7.892 17.238,-9.617 c 21.115,-11.786 42.493,-9.993 57.503,4.814"
   id="path34"
   style="fill:#808080;fill-opacity:1"
   inkscape:connector-curvature="0" />
</g>
<g
   id="g80"
   transform="translate(-1112.367,-1016.8376)"
   style="fill:#cccccc">
	<defs
   id="defs39">
		<rect
   id="SVGID_5_"
   width="4975"
   height="4975"
   x="0"
   y="0" />
	</defs>
	<clipPath
   id="SVGID_6_">
		<use
   xlink:href="#SVGID_5_"
   overflow="visible"
   id="use41"
   style="overflow:visible"
   x="0"
   y="0"
   width="100%"
   height="100%" />
	</clipPath>
	<path
   clip-path="url(#SVGID_6_)"
   d="m 2424.434,3582.007 c -5.429,0 -10.691,-2.815 -13.585,-7.829 -4.322,-7.504 -1.755,-17.05 5.709,-21.37 l 1071.54,-618.629 c 7.504,-4.412 17.055,-1.716 21.377,5.709 4.327,7.503 1.794,17.048 -5.709,21.384 l -1071.543,618.613 c -2.448,1.48 -5.139,2.122 -7.789,2.122"
   id="path44"
   inkscape:connector-curvature="0"
   style="fill:#cccccc" />
	<path
   clip-path="url(#SVGID_6_)"
   d="m 3458.424,2882.768 c 35.868,-20.697 81.73,-8.385 102.432,27.448 20.721,35.868 8.414,81.755 -27.428,102.427 -35.889,20.73 -81.755,8.418 -102.452,-27.424 -20.702,-35.893 -8.415,-81.754 27.448,-102.451"
   id="path46"
   inkscape:connector-curvature="0"
   style="fill:#cccccc" />
	<path
   clip-path="url(#SVGID_6_)"
   d="m 2386.92,3501.419 c -35.864,20.673 -48.176,66.562 -27.449,102.429 20.698,35.844 66.589,48.146 102.428,27.426 35.864,-20.672 48.151,-66.562 27.449,-102.428 -20.697,-35.845 -66.559,-48.147 -102.428,-27.427"
   id="path48"
   inkscape:connector-curvature="0"
   style="fill:#cccccc" />
	<path
   clip-path="url(#SVGID_6_)"
   d="m 2424.636,3582.007 c -2.69,0 -5.382,-0.642 -7.83,-2.122 L 1345.31,2961.271 c -7.47,-4.336 -10.083,-13.881 -5.755,-21.384 4.328,-7.425 13.912,-10.121 21.415,-5.709 l 1071.502,618.629 c 7.503,4.32 10.038,13.866 5.709,21.37 -2.856,5.014 -8.157,7.83 -13.545,7.83"
   id="path50"
   inkscape:connector-curvature="0"
   style="fill:#cccccc" />
	<path
   clip-path="url(#SVGID_6_)"
   d="m 2449.644,3523.062 c 23.912,13.781 32.1,44.373 18.302,68.285 -13.801,23.895 -44.375,32.097 -68.303,18.283 -23.893,-13.782 -32.101,-44.374 -18.283,-68.285 13.797,-23.894 44.374,-32.095 68.284,-18.283"
   id="path52"
   inkscape:connector-curvature="0"
   style="fill:#cccccc" />
	<path
   clip-path="url(#SVGID_6_)"
   d="m 1390.639,2882.772 c -35.86,-20.694 -81.723,-8.385 -102.443,27.445 -20.701,35.868 -8.414,81.749 27.446,102.421 35.86,20.728 81.724,8.417 102.447,-27.424 20.696,-35.888 8.411,-81.747 -27.45,-102.442"
   id="path54"
   inkscape:connector-curvature="0"
   style="fill:#cccccc" />
	<path
   clip-path="url(#SVGID_6_)"
   d="m 3495.686,2963.393 c -8.646,0 -15.666,-7.02 -15.666,-15.674 V 1710.476 c 0,-8.656 7.02,-15.674 15.666,-15.674 8.648,0 15.668,7.018 15.668,15.674 v 1237.243 c 0,8.654 -7.02,15.674 -15.668,15.674"
   id="path56"
   inkscape:connector-curvature="0"
   style="fill:#cccccc" />
	<path
   clip-path="url(#SVGID_6_)"
   d="m 3420.686,1710.476 c 0,-41.426 33.604,-75 75,-75 41.398,0 75,33.574 75,75 0,41.392 -33.578,74.975 -75,75 -41.397,0 -75,-33.609 -75,-75"
   id="path58"
   inkscape:connector-curvature="0"
   style="fill:#cccccc" />
	<path
   clip-path="url(#SVGID_6_)"
   d="m 3420.706,2947.719 c 0,41.408 33.584,75.014 74.987,75.014 41.429,0 75.013,-33.605 75.013,-75.014 0,-41.4 -33.584,-75.014 -75.013,-75.014 -41.403,0 -74.987,33.613 -74.987,75.014"
   id="path60"
   inkscape:connector-curvature="0"
   style="fill:#cccccc" />
	<path
   clip-path="url(#SVGID_6_)"
   d="m 3495.93,1726.136 c -2.691,0 -5.381,-0.656 -7.832,-2.122 L 2416.557,1105.386 c -7.463,-4.322 -10.03,-13.906 -5.709,-21.369 4.328,-7.503 13.873,-10.082 21.375,-5.748 l 1071.543,618.655 c 7.503,4.333 10.036,13.878 5.709,21.381 -2.854,5.015 -8.159,7.831 -13.545,7.831"
   id="path62"
   inkscape:connector-curvature="0"
   style="fill:#cccccc" />
	<path
   clip-path="url(#SVGID_6_)"
   d="m 3533.428,1645.52 c 35.842,20.697 48.148,66.559 27.428,102.451 -20.701,35.835 -66.564,48.146 -102.432,27.424 -35.863,-20.696 -48.149,-66.558 -27.448,-102.426 20.697,-35.867 66.563,-48.155 102.452,-27.449"
   id="path64"
   inkscape:connector-curvature="0"
   style="fill:#cccccc" />
	<path
   clip-path="url(#SVGID_6_)"
   d="m 2461.9,1026.892 c -35.839,-20.697 -81.732,-8.419 -102.429,27.45 -20.726,35.868 -8.414,81.731 27.449,102.427 35.869,20.723 81.73,8.42 102.429,-27.423 20.702,-35.895 8.415,-81.756 -27.449,-102.454"
   id="path66"
   inkscape:connector-curvature="0"
   style="fill:#cccccc" />
	<path
   clip-path="url(#SVGID_6_)"
   d="m 1352.937,1726.136 c -5.428,0 -10.691,-2.816 -13.585,-7.831 -4.328,-7.503 -1.754,-17.048 5.748,-21.381 l 1071.457,-618.655 c 7.549,-4.334 17.093,-1.755 21.422,5.748 4.321,7.463 1.753,17.047 -5.756,21.369 l -1071.456,618.628 c -2.488,1.466 -5.178,2.122 -7.83,2.122"
   id="path68"
   inkscape:connector-curvature="0"
   style="fill:#cccccc" />
	<path
   clip-path="url(#SVGID_6_)"
   d="m 2399.415,1048.539 c 23.913,-13.798 54.487,-5.612 68.286,18.3 13.801,23.912 5.61,54.488 -18.301,68.285 -23.892,13.815 -54.486,5.614 -68.284,-18.281 -13.818,-23.93 -5.61,-54.505 18.299,-68.304"
   id="path70"
   inkscape:connector-curvature="0"
   style="fill:#cccccc" />
	<path
   clip-path="url(#SVGID_6_)"
   d="m 1327.918,1667.165 c -23.913,13.799 -32.102,44.375 -18.319,68.304 13.818,23.891 44.394,32.098 68.306,18.283 23.91,-13.798 32.098,-44.374 18.3,-68.287 -13.798,-23.913 -44.393,-32.105 -68.287,-18.3"
   id="path72"
   inkscape:connector-curvature="0"
   style="fill:#cccccc" />
	<path
   clip-path="url(#SVGID_6_)"
   d="m 1353.14,2963.393 c -8.648,0 -15.667,-7.02 -15.667,-15.674 V 1710.476 c 0,-8.656 7.019,-15.674 15.667,-15.674 8.648,0 15.667,7.018 15.667,15.674 v 1237.243 c 0,8.654 -7.019,15.674 -15.667,15.674"
   id="path74"
   inkscape:connector-curvature="0"
   style="fill:#cccccc" />
	<path
   clip-path="url(#SVGID_6_)"
   d="m 1278.14,1710.476 c 0,-41.44 33.564,-75.025 75,-75.025 41.436,0 75,33.585 75,75.025 0,41.405 -33.564,75.024 -75,75.024 -41.436,0 -75,-33.619 -75,-75.024"
   id="path76"
   inkscape:connector-curvature="0"
   style="fill:#cccccc" />
	<path
   clip-path="url(#SVGID_6_)"
   d="m 1303.14,2947.719 c 0,27.609 22.376,50.018 50,50.018 27.624,0 50,-22.408 50,-50.018 0,-27.604 -22.376,-50.018 -50,-50.018 -27.624,0 -50,22.414 -50,50.018"
   id="path78"
   inkscape:connector-curvature="0"
   style="fill:#cccccc" />
</g>
<g
   id="g124"
   transform="translate(-1112.367,-1016.8376)"
   style="fill:#e6e6e6">
	<defs
   id="defs83">
		<rect
   id="SVGID_7_"
   width="4975"
   height="4975"
   x="0"
   y="0" />
	</defs>
	<clipPath
   id="SVGID_8_">
		<use
   xlink:href="#SVGID_7_"
   overflow="visible"
   id="use85"
   style="overflow:visible"
   x="0"
   y="0"
   width="100%"
   height="100%" />
	</clipPath>
	<path
   clip-path="url(#SVGID_8_)"
   d="m 1800.076,3415.302 c -4.706,-2.704 -7.866,-7.768 -7.877,-13.557 -0.01,-8.659 6.976,-15.656 15.6,-15.682 l 1237.294,-2.36 c 8.704,-0.086 15.639,7.012 15.688,15.603 0.014,8.661 -6.94,15.675 -15.605,15.694 l -1237.289,2.346 c -2.86,0.062 -5.513,-0.723 -7.811,-2.044"
   id="path88"
   inkscape:connector-curvature="0"
   style="fill:#e6e6e6" />
	<path
   clip-path="url(#SVGID_8_)"
   d="m 3044.986,3324.342 c 41.409,-0.068 75.037,33.459 75.129,74.844 0.089,41.424 -33.448,75.073 -74.824,75.135 -41.445,0.088 -75.076,-33.444 -75.158,-74.832 -0.061,-41.434 33.445,-75.074 74.853,-75.147"
   id="path90"
   inkscape:connector-curvature="0"
   style="fill:#e6e6e6" />
	<path
   clip-path="url(#SVGID_8_)"
   d="m 1807.712,3326.74 c -41.395,0.051 -74.938,33.701 -74.841,75.126 0.082,41.39 33.738,74.927 75.136,74.819 41.395,-0.049 74.916,-33.71 74.841,-75.123 -0.081,-41.39 -33.713,-74.912 -75.136,-74.822"
   id="path92"
   inkscape:connector-curvature="0"
   style="fill:#e6e6e6" />
	<path
   clip-path="url(#SVGID_8_)"
   d="m 1800.252,3415.403 c -2.333,-1.34 -4.347,-3.236 -5.731,-5.741 l -620.697,-1070.29 c -4.316,-7.482 -1.824,-17.06 5.666,-21.408 7.452,-4.28 17.106,-1.842 21.413,5.722 l 620.693,1070.307 c 4.352,7.483 1.793,17.024 -5.7,21.373 -4.973,2.925 -10.972,2.724 -15.644,0.037"
   id="path94"
   inkscape:connector-curvature="0"
   style="fill:#e6e6e6" />
	<path
   clip-path="url(#SVGID_8_)"
   d="m 1851.307,3376.762 c 13.864,23.865 5.718,54.468 -18.161,68.323 -23.873,13.838 -54.467,5.714 -68.329,-18.187 -13.847,-23.855 -5.718,-54.469 18.177,-68.313 23.871,-13.839 54.467,-5.713 68.313,18.177"
   id="path96"
   inkscape:connector-curvature="0"
   style="fill:#e6e6e6" />
	<path
   clip-path="url(#SVGID_8_)"
   d="m 1252.241,2293.903 c -20.777,-35.814 -66.673,-47.994 -102.493,-27.256 -35.82,20.78 -48.033,66.682 -27.244,102.475 20.761,35.84 66.658,48.022 102.486,27.276 35.827,-20.801 48.03,-66.681 27.251,-102.495"
   id="path98"
   inkscape:connector-curvature="0"
   style="fill:#e6e6e6" />
	<path
   clip-path="url(#SVGID_8_)"
   d="m 3037.112,3412.812 c -7.496,-4.309 -10.085,-13.893 -5.771,-21.396 L 3647.9,2318.745 c 4.313,-7.504 13.896,-10.091 21.393,-5.782 7.499,4.31 10.087,13.892 5.772,21.396 l -616.558,1072.672 c -4.314,7.504 -13.895,10.094 -21.395,5.781"
   id="path100"
   inkscape:connector-curvature="0"
   style="fill:#e6e6e6" />
	<path
   clip-path="url(#SVGID_8_)"
   d="m 3596.458,2289.175 c 20.646,-35.916 66.508,-48.277 102.397,-27.649 35.894,20.631 48.295,66.483 27.65,102.399 -20.628,35.887 -66.477,48.27 -102.4,27.649 -35.888,-20.629 -48.275,-66.512 -27.647,-102.399"
   id="path102"
   inkscape:connector-curvature="0"
   style="fill:#e6e6e6" />
	<path
   clip-path="url(#SVGID_8_)"
   d="m 2979.917,3361.859 c -20.636,35.9 -8.267,81.771 27.632,102.403 35.917,20.646 81.781,8.246 102.416,-27.654 20.632,-35.893 8.264,-81.771 -27.654,-102.416 -35.895,-20.633 -81.762,-8.227 -102.394,27.667"
   id="path104"
   inkscape:connector-curvature="0"
   style="fill:#e6e6e6" />
	<path
   clip-path="url(#SVGID_8_)"
   d="m 3653.89,2340.25 c -2.334,-1.34 -4.339,-3.251 -5.733,-5.742 L 3027.428,1264.184 c -4.316,-7.469 -1.766,-17.056 5.699,-21.373 7.492,-4.349 17.053,-1.828 21.396,5.667 l 620.717,1070.351 c 4.346,7.496 1.785,17.034 -5.705,21.383 -4.973,2.924 -10.975,2.722 -15.645,0.038"
   id="path106"
   inkscape:connector-curvature="0"
   style="fill:#e6e6e6" />
	<path
   clip-path="url(#SVGID_8_)"
   d="m 3726.573,2289.044 c 20.761,35.804 8.576,81.699 -27.275,102.492 -35.805,20.751 -81.702,8.571 -102.474,-27.27 -20.779,-35.816 -8.576,-81.699 27.246,-102.479 35.819,-20.783 81.704,-8.579 102.503,27.257"
   id="path108"
   inkscape:connector-curvature="0"
   style="fill:#e6e6e6" />
	<path
   clip-path="url(#SVGID_8_)"
   d="m 3105.856,1218.724 c -20.759,-35.805 -66.665,-48.029 -102.484,-27.245 -35.843,20.769 -48.023,66.666 -27.245,102.481 20.771,35.842 66.664,48.029 102.471,27.269 35.835,-20.802 48.037,-66.688 27.258,-102.505"
   id="path110"
   inkscape:connector-curvature="0"
   style="fill:#e6e6e6" />
	<path
   clip-path="url(#SVGID_8_)"
   d="m 1795.945,1272.327 c -4.706,-2.705 -7.865,-7.769 -7.876,-13.56 -0.013,-8.661 6.975,-15.655 15.639,-15.672 l 1237.233,-2.422 c 8.705,0 15.695,6.995 15.707,15.657 0.028,8.624 -6.974,15.653 -15.638,15.659 l -1237.221,2.401 c -2.886,0.03 -5.545,-0.742 -7.844,-2.063"
   id="path112"
   inkscape:connector-curvature="0"
   style="fill:#e6e6e6" />
	<path
   clip-path="url(#SVGID_8_)"
   d="m 3040.895,1206.354 c 27.607,-0.046 50.036,22.287 50.082,49.896 0.051,27.608 -22.287,50.036 -49.893,50.083 -27.599,0.071 -50.037,-22.286 -50.093,-49.879 -0.055,-27.634 22.298,-50.051 49.904,-50.1"
   id="path114"
   inkscape:connector-curvature="0"
   style="fill:#e6e6e6" />
	<path
   clip-path="url(#SVGID_8_)"
   d="m 1803.641,1208.732 c -27.608,0.048 -49.945,22.475 -49.92,50.091 0.074,27.598 22.493,49.951 50.109,49.889 27.607,-0.047 49.942,-22.475 49.896,-50.083 -0.046,-27.609 -22.492,-49.958 -50.085,-49.897"
   id="path116"
   inkscape:connector-curvature="0"
   style="fill:#e6e6e6" />
	<path
   clip-path="url(#SVGID_8_)"
   d="m 1179.555,2345.112 c -7.497,-4.31 -10.084,-13.893 -5.772,-21.396 l 616.559,-1072.673 c 4.314,-7.506 13.896,-10.092 21.394,-5.782 7.497,4.31 10.086,13.892 5.772,21.396 L 1200.95,2339.33 c -4.313,7.504 -13.897,10.092 -21.395,5.782"
   id="path118"
   inkscape:connector-curvature="0"
   style="fill:#e6e6e6" />
	<path
   clip-path="url(#SVGID_8_)"
   d="m 1738.9,1221.476 c 20.651,-35.927 66.487,-48.319 102.411,-27.67 35.924,20.649 48.287,66.494 27.637,102.42 -20.634,35.898 -66.487,48.319 -102.411,27.671 -35.925,-20.65 -48.269,-66.523 -27.637,-102.421"
   id="path120"
   inkscape:connector-curvature="0"
   style="fill:#e6e6e6" />
	<path
   clip-path="url(#SVGID_8_)"
   d="m 1144.017,2306.606 c -13.759,23.938 -5.525,54.516 18.424,68.282 23.949,13.766 54.515,5.489 68.274,-18.448 13.757,-23.933 5.526,-54.516 -18.424,-68.281 -23.949,-13.765 -54.519,-5.484 -68.274,18.447"
   id="path122"
   inkscape:connector-curvature="0"
   style="fill:#e6e6e6" />
</g>
</svg>